<svg width="28" height="27" viewBox="0 0 28 27" fill="none" xmlns="http://www.w3.org/2000/svg">
<g clip-path="url(#clip0_42_155)">
<path d="M10.209 5.22926C10.209 5.90967 10.209 8.94662 10.209 8.94662H7.48553V13.4922H10.209V27.0001H15.8036V13.4926H19.5578C19.5578 13.4926 19.9094 11.313 20.0798 8.92986C19.5912 8.92986 15.8247 8.92986 15.8247 8.92986C15.8247 8.92986 15.8247 6.28537 15.8247 5.82185C15.8247 5.35732 16.4347 4.73247 17.0376 4.73247C17.6393 4.73247 18.9094 4.73247 20.0857 4.73247C20.0857 4.11358 20.0857 1.97518 20.0857 0.000244157C18.5153 0.000244157 16.7288 0.000244157 15.9413 0.000244157C10.0707 -6.97135e-05 10.209 4.55005 10.209 5.22926Z" fill="#284461"/>
</g>
<defs>
<clipPath id="clip0_42_155">
<rect width="27" height="27" fill="white" transform="translate(0.285706)"/>
</clipPath>
</defs>
</svg>
