<svg width="125" height="35" viewBox="0 0 125 35" fill="none" xmlns="http://www.w3.org/2000/svg">
<g filter="url(#filter0_d_10_19)">
<path d="M15.6602 12.3086C15.4909 12.3086 15.3411 12.2956 15.2109 12.2695C15.0807 12.2305 14.9505 12.1914 14.8203 12.1523C14.6901 12.1133 14.5534 12.0807 14.4102 12.0547C14.3451 12.0417 14.2669 12.0352 14.1758 12.0352C14.0977 12.0352 14.0065 12.0417 13.9023 12.0547C13.8372 12.3021 13.8047 12.5495 13.8047 12.7969C13.8047 12.9922 13.8242 13.181 13.8633 13.3633C13.9414 13.819 14.0391 14.2812 14.1562 14.75C14.2734 15.2057 14.3776 15.6745 14.4688 16.1562C14.5208 16.4167 14.5469 16.6771 14.5469 16.9375C14.5469 17.1589 14.5273 17.3802 14.4883 17.6016C14.332 17.6667 14.1432 17.7057 13.9219 17.7188H13.8633C13.668 17.7188 13.5247 17.6536 13.4336 17.5234C13.4206 17.0677 13.375 16.612 13.2969 16.1562C13.2318 15.7005 13.1536 15.2448 13.0625 14.7891C12.9714 14.3203 12.8802 13.8581 12.7891 13.4023C12.7109 12.9336 12.6458 12.4583 12.5938 11.9766C11.2135 11.9896 9.89193 12.0742 8.62891 12.2305C7.36589 12.3867 6.14193 12.6276 4.95703 12.9531C4.89193 13.2917 4.83984 13.6562 4.80078 14.0469C4.76172 14.4375 4.72917 14.8346 4.70312 15.2383C4.67708 15.6289 4.64453 16.013 4.60547 16.3906C4.57943 16.7682 4.54036 17.1068 4.48828 17.4062C4.37109 17.4974 4.23438 17.5755 4.07812 17.6406C3.98698 17.6797 3.89583 17.6992 3.80469 17.6992C3.73958 17.6992 3.66797 17.6862 3.58984 17.6602C3.4987 17.3997 3.45312 17.1133 3.45312 16.8008C3.45312 16.7747 3.45964 16.7487 3.47266 16.7227C3.47266 16.3841 3.4987 16.0326 3.55078 15.668C3.60286 15.2904 3.65495 14.9128 3.70703 14.5352C3.75911 14.1445 3.78516 13.7734 3.78516 13.4219C3.70703 13.3958 3.62891 13.3828 3.55078 13.3828C3.43359 13.3828 3.31641 13.4089 3.19922 13.4609C2.99089 13.5391 2.78906 13.6367 2.59375 13.7539C2.41146 13.8711 2.23568 13.9753 2.06641 14.0664C1.94922 14.1315 1.83854 14.1641 1.73438 14.1641C1.69531 14.1641 1.65625 14.1576 1.61719 14.1445C1.48698 14.1055 1.3763 14.0208 1.28516 13.8906C1.22005 13.8125 1.1875 13.7279 1.1875 13.6367C1.1875 13.5716 1.20052 13.5 1.22656 13.4219C1.26562 13.2917 1.40885 13.181 1.65625 13.0898C1.90365 12.9857 2.17057 12.888 2.45703 12.7969C2.75651 12.7057 3.03646 12.6211 3.29688 12.543C3.57031 12.4518 3.7526 12.3542 3.84375 12.25C3.90885 11.5339 3.95443 10.8242 3.98047 10.1211V9.59375C3.98047 9.07292 3.96094 8.5651 3.92188 8.07031C3.85677 7.40625 3.7526 6.77474 3.60938 6.17578C3.46615 5.5638 3.25781 4.9974 2.98438 4.47656C2.89323 4.28125 2.78906 4.08594 2.67188 3.89062C2.56771 3.68229 2.48307 3.47396 2.41797 3.26562C2.35286 3.10938 2.32031 2.95964 2.32031 2.81641C2.32031 2.77734 2.32682 2.73828 2.33984 2.69922C2.35286 2.52995 2.4375 2.38021 2.59375 2.25C2.94531 2.25 3.21224 2.36719 3.39453 2.60156C3.57682 2.83594 3.72656 3.11589 3.84375 3.44141C3.96094 3.76693 4.07161 4.09896 4.17578 4.4375C4.27995 4.77604 4.42969 5.04948 4.625 5.25781C4.83333 6.32552 4.95052 7.41276 4.97656 8.51953C5.01562 9.6263 5.04818 10.7591 5.07422 11.918C6.18099 11.6445 7.34635 11.4102 8.57031 11.2148C9.52083 11.0586 10.5299 10.9805 11.5977 10.9805C11.8841 10.9805 12.1706 10.987 12.457 11V10.7266C12.457 10.4531 12.4701 10.1797 12.4961 9.90625C12.5352 9.54167 12.5807 9.17708 12.6328 8.8125C12.6849 8.4349 12.7305 8.0638 12.7695 7.69922C12.8216 7.32161 12.8477 6.94401 12.8477 6.56641C12.8477 5.82422 12.9453 5.07552 13.1406 4.32031C13.349 3.55208 13.6029 2.86198 13.9023 2.25C13.9805 2.08073 14.0456 1.91797 14.0977 1.76172C14.1628 1.59245 14.2344 1.44922 14.3125 1.33203C14.3906 1.20182 14.4948 1.09766 14.625 1.01953C14.7292 0.967448 14.8659 0.941406 15.0352 0.941406H15.1328C15.263 1.07161 15.3281 1.23438 15.3281 1.42969C15.3281 1.48177 15.3216 1.54036 15.3086 1.60547C15.2565 1.87891 15.1589 2.17188 15.0156 2.48438C14.8724 2.79688 14.7161 3.10286 14.5469 3.40234C14.3776 3.70182 14.2669 3.96875 14.2148 4.20312C13.9805 5.23177 13.8307 6.3125 13.7656 7.44531C13.7005 8.5651 13.6549 9.70443 13.6289 10.8633C13.9023 10.8633 14.2148 10.8893 14.5664 10.9414C14.931 10.9935 15.2435 11.0781 15.5039 11.1953C15.7643 11.2995 15.9336 11.4427 16.0117 11.625C16.0247 11.6641 16.0312 11.7031 16.0312 11.7422C16.0312 11.8984 15.9076 12.0872 15.6602 12.3086ZM29.5664 15.5312C29.5273 15.6875 29.4818 15.8307 29.4297 15.9609C29.3776 16.0911 29.293 16.1823 29.1758 16.2344C29.1107 16.2604 29.0326 16.2734 28.9414 16.2734C28.8763 16.2734 28.8112 16.2669 28.7461 16.2539C28.5638 16.2279 28.375 16.1758 28.1797 16.0977C27.9844 16.0195 27.7956 15.9284 27.6133 15.8242C27.444 15.7201 27.3138 15.6224 27.2227 15.5312C27.0404 15.362 26.8906 15.1667 26.7734 14.9453C26.6693 14.724 26.5716 14.5026 26.4805 14.2812C26.3893 14.0469 26.3047 13.832 26.2266 13.6367C26.1615 13.4414 26.0768 13.2852 25.9727 13.168C25.8294 13.2331 25.7122 13.3177 25.6211 13.4219C25.5299 13.526 25.4388 13.6432 25.3477 13.7734C25.2695 13.9036 25.1849 14.0404 25.0938 14.1836C25.0156 14.3138 24.918 14.431 24.8008 14.5352C24.5273 14.8086 24.1953 15.056 23.8047 15.2773C23.4271 15.4857 23.0169 15.6484 22.5742 15.7656C22.1966 15.8698 21.806 15.9219 21.4023 15.9219C21.3372 15.9219 21.2721 15.9154 21.207 15.9023C20.7383 15.8893 20.2826 15.7852 19.8398 15.5898C19.3841 15.2773 18.9674 14.8802 18.5898 14.3984C18.2253 13.9167 17.9323 13.3828 17.7109 12.7969C17.4896 12.2109 17.3659 11.5859 17.3398 10.9219C17.3268 10.8438 17.3203 10.7656 17.3203 10.6875C17.3203 10.1146 17.4245 9.52865 17.6328 8.92969C17.7109 8.72135 17.8151 8.49349 17.9453 8.24609C18.0885 7.98568 18.2448 7.73828 18.4141 7.50391C18.5833 7.26953 18.7591 7.05469 18.9414 6.85938C19.1367 6.66406 19.3255 6.50781 19.5078 6.39062C19.9766 6.10417 20.4909 5.91536 21.0508 5.82422C21.3503 5.78516 21.6497 5.76562 21.9492 5.76562C22.1966 5.76562 22.4505 5.77865 22.7109 5.80469C23.2708 5.88281 23.8112 6.03255 24.332 6.25391C24.8659 6.46224 25.3477 6.72266 25.7773 7.03516C25.8945 6.91797 26.0378 6.79427 26.207 6.66406C26.3893 6.52083 26.5781 6.40365 26.7734 6.3125C26.9427 6.2474 27.112 6.21484 27.2812 6.21484H27.3789C27.5742 6.22786 27.763 6.32552 27.9453 6.50781C28.0495 6.91146 28.1016 7.30859 28.1016 7.69922V7.99219C28.0625 8.47396 27.9779 8.94271 27.8477 9.39844C27.7174 9.84115 27.5547 10.2643 27.3594 10.668C27.1771 11.0716 27.0013 11.4492 26.832 11.8008C27.0273 12.4128 27.2422 12.9987 27.4766 13.5586C27.724 14.1185 28.0495 14.6003 28.4531 15.0039H28.668C28.8763 15.0039 29.0326 15.0299 29.1367 15.082C29.2799 15.1732 29.4232 15.3229 29.5664 15.5312ZM26.9688 7.48438C26.7083 7.86198 26.5651 8.27865 26.5391 8.73438V9.04688C26.5391 9.41146 26.5716 9.80859 26.6367 10.2383C26.7148 10.082 26.806 9.88021 26.9102 9.63281C27.0143 9.3724 27.099 9.10547 27.1641 8.83203C27.2031 8.61068 27.2227 8.39583 27.2227 8.1875V8.05078C27.2096 7.81641 27.125 7.6276 26.9688 7.48438ZM25.6602 11.6641C25.6081 11.1302 25.556 10.5703 25.5039 9.98438C25.4648 9.64583 25.4453 9.3138 25.4453 8.98828C25.4453 8.76693 25.4518 8.55208 25.4648 8.34375C25.2956 8.08333 25.0677 7.84896 24.7812 7.64062C24.4948 7.43229 24.1823 7.26302 23.8438 7.13281C23.5052 7.0026 23.1471 6.91146 22.7695 6.85938C22.5482 6.83333 22.3398 6.82031 22.1445 6.82031C21.9883 6.82031 21.832 6.82682 21.6758 6.83984C21.2201 6.89193 20.8229 7.0026 20.4844 7.17188C20.1458 7.32812 19.8464 7.52344 19.5859 7.75781C19.4427 8.01823 19.2865 8.30469 19.1172 8.61719C18.9479 8.92969 18.7982 9.26172 18.668 9.61328C18.5508 9.96484 18.4661 10.3294 18.4141 10.707C18.401 10.8503 18.3945 10.987 18.3945 11.1172C18.3945 11.3646 18.4206 11.612 18.4727 11.8594C18.5247 12.0677 18.6029 12.3021 18.707 12.5625C18.8242 12.8099 18.9544 13.0573 19.0977 13.3047C19.2539 13.5521 19.4167 13.7799 19.5859 13.9883C19.7682 14.1966 19.944 14.3594 20.1133 14.4766C20.3737 14.6589 20.6797 14.776 21.0312 14.8281C21.2526 14.8672 21.487 14.8867 21.7344 14.8867C21.8646 14.8867 21.9948 14.8802 22.125 14.8672C22.5547 14.737 22.9323 14.5547 23.2578 14.3203C23.5833 14.0859 23.8828 13.8255 24.1562 13.5391C24.4297 13.2526 24.6836 12.9466 24.918 12.6211C25.1654 12.2956 25.4128 11.9766 25.6602 11.6641ZM41.9492 13.7344C41.8971 13.8125 41.8255 13.9102 41.7344 14.0273C41.6562 14.1445 41.5651 14.2617 41.4609 14.3789C41.3698 14.4961 41.2786 14.6068 41.1875 14.7109C41.0964 14.8021 41.0117 14.8737 40.9336 14.9258C40.8685 14.9648 40.7708 15.0104 40.6406 15.0625C40.5234 15.1016 40.3932 15.1471 40.25 15.1992C40.1068 15.2383 39.957 15.2773 39.8008 15.3164C39.6576 15.3555 39.5339 15.388 39.4297 15.4141C39.3646 15.4271 39.306 15.4596 39.2539 15.5117C39.2148 15.5508 39.1758 15.5768 39.1367 15.5898H39.0781C39.013 15.5898 38.9609 15.5768 38.9219 15.5508C38.8698 15.5378 38.8047 15.5312 38.7266 15.5312H38.6484C38.5182 15.5443 38.388 15.5768 38.2578 15.6289C38.1406 15.681 38.0299 15.707 37.9258 15.707C37.7435 15.707 37.5221 15.668 37.2617 15.5898C37.0013 15.5117 36.7799 15.4336 36.5977 15.3555C36.4544 15.2773 36.3307 15.1797 36.2266 15.0625C36.1224 14.9323 35.9857 14.8086 35.8164 14.6914C35.6602 14.5742 35.5104 14.4766 35.3672 14.3984C35.237 14.3073 35.1263 14.2161 35.0352 14.125C34.944 14.0208 34.8984 13.8971 34.8984 13.7539L34.8789 13.7344C34.8789 13.5911 34.931 13.4089 35.0352 13.1875C35.1654 13.1484 35.2826 13.1289 35.3867 13.1289C35.5039 13.1289 35.6081 13.1484 35.6992 13.1875C35.8685 13.2917 36.0247 13.4284 36.168 13.5977C36.3112 13.7539 36.4544 13.9167 36.5977 14.0859C36.7539 14.2552 36.9362 14.3724 37.1445 14.4375C37.5352 14.5677 37.9128 14.6328 38.2773 14.6328C38.5117 14.6328 38.7396 14.6003 38.9609 14.5352C39.5208 14.4049 40.0026 14.1576 40.4062 13.793C40.8229 13.4154 41.1484 12.9531 41.3828 12.4062C41.6302 11.8594 41.7604 11.2799 41.7734 10.668V10.5312C41.7734 10.1536 41.7279 9.80859 41.6367 9.49609C41.5326 9.15755 41.3958 8.84505 41.2266 8.55859C41.0573 8.27214 40.862 8.01172 40.6406 7.77734C40.4193 7.52995 40.1979 7.28906 39.9766 7.05469C39.3646 6.72917 38.7591 6.56641 38.1602 6.56641C38.082 6.56641 38.0039 6.57292 37.9258 6.58594C37.2487 6.63802 36.5911 6.8138 35.9531 7.11328C35.5234 7.30859 35.1003 7.51693 34.6836 7.73828C34.2669 7.94661 33.9284 8.22005 33.668 8.55859C33.8112 9.2487 33.9414 9.96484 34.0586 10.707C34.1888 11.4362 34.2865 12.1784 34.3516 12.9336C34.3906 13.5065 34.4102 14.0859 34.4102 14.6719V15.2578C34.3841 16.0521 34.293 16.8464 34.1367 17.6406C34.0846 17.9141 34.0391 18.194 34 18.4805C33.9609 18.7669 33.9154 19.0404 33.8633 19.3008C33.8242 19.5742 33.7656 19.8281 33.6875 20.0625C33.6224 20.2969 33.5312 20.5052 33.4141 20.6875C33.2578 20.9219 33.0365 21.1172 32.75 21.2734C32.4635 21.4297 32.1706 21.5208 31.8711 21.5469H31.7344C31.487 21.5469 31.2591 21.4883 31.0508 21.3711C30.7904 21.2409 30.6211 20.9935 30.543 20.6289C30.3086 19.6003 30.1849 18.5326 30.1719 17.4258V17.2109C30.1719 16.1823 30.2565 15.1732 30.4258 14.1836C30.5951 13.1159 30.8555 12.1003 31.207 11.1367C31.5586 10.1732 31.9753 9.3138 32.457 8.55859C32.457 8.28516 32.3789 8.00521 32.2227 7.71875C32.0794 7.43229 31.9427 7.15885 31.8125 6.89844C31.6823 6.63802 31.6107 6.38411 31.5977 6.13672C31.5846 6.1237 31.5781 6.11068 31.5781 6.09766C31.5781 5.8763 31.6888 5.67448 31.9102 5.49219C32.0013 5.55729 32.1055 5.59635 32.2227 5.60938C32.3529 5.6224 32.4505 5.66146 32.5156 5.72656C32.5807 6.0651 32.6784 6.37109 32.8086 6.64453C32.9518 6.90495 33.0951 7.15885 33.2383 7.40625C33.4336 7.34115 33.6159 7.25651 33.7852 7.15234C33.9544 7.03516 34.1237 6.91797 34.293 6.80078C34.4753 6.68359 34.651 6.57292 34.8203 6.46875C35.0026 6.36458 35.1979 6.27995 35.4062 6.21484C35.4714 6.1888 35.543 6.17578 35.6211 6.17578H35.6797C35.6927 6.1888 35.7122 6.19531 35.7383 6.19531C35.8034 6.19531 35.875 6.18229 35.9531 6.15625C36.1224 6.09115 36.2917 6.01302 36.4609 5.92188C36.6432 5.83073 36.832 5.7526 37.0273 5.6875C37.2357 5.60938 37.4635 5.54427 37.7109 5.49219C37.8281 5.47917 37.9648 5.47266 38.1211 5.47266C38.2513 5.47266 38.388 5.47917 38.5312 5.49219C38.9609 5.60938 39.332 5.72656 39.6445 5.84375C39.957 5.94792 40.237 6.07812 40.4844 6.23438C40.7448 6.39062 40.9857 6.57943 41.207 6.80078C41.4284 7.00911 41.6562 7.27604 41.8906 7.60156C42.1771 8.00521 42.3984 8.46094 42.5547 8.96875C42.724 9.46354 42.8151 9.97786 42.8281 10.5117V10.5898C42.8281 11.1107 42.763 11.6315 42.6328 12.1523C42.4896 12.6992 42.2617 13.2266 41.9492 13.7344ZM33.1797 17.3281C33.2448 16.8203 33.2969 16.2669 33.3359 15.668C33.349 15.2513 33.3555 14.8346 33.3555 14.418V13.9102C33.3424 13.3242 33.3164 12.7708 33.2773 12.25C33.2383 11.7292 33.1862 11.2799 33.1211 10.9023C33.082 10.694 33.0169 10.4857 32.9258 10.2773C32.8346 10.069 32.776 9.95833 32.75 9.94531C32.724 9.95833 32.7044 9.98438 32.6914 10.0234C32.6784 10.0625 32.6589 10.0951 32.6328 10.1211C32.4115 10.6419 32.1966 11.2344 31.9883 11.8984C31.7799 12.5625 31.5977 13.2591 31.4414 13.9883C31.2852 14.7174 31.1745 15.4596 31.1094 16.2148C31.0573 16.6576 31.0312 17.0938 31.0312 17.5234C31.0312 17.8229 31.0443 18.1224 31.0703 18.4219C31.0964 18.7865 31.1549 19.1641 31.2461 19.5547C31.3503 19.9453 31.5521 20.2643 31.8516 20.5117C32.0859 20.4727 32.2747 20.3424 32.418 20.1211C32.5742 19.8997 32.6979 19.6328 32.7891 19.3203C32.8932 19.0208 32.9714 18.6888 33.0234 18.3242C33.0885 17.9727 33.1406 17.6406 33.1797 17.3281ZM55.6016 13.7344C55.5495 13.8125 55.4779 13.9102 55.3867 14.0273C55.3086 14.1445 55.2174 14.2617 55.1133 14.3789C55.0221 14.4961 54.931 14.6068 54.8398 14.7109C54.7487 14.8021 54.6641 14.8737 54.5859 14.9258C54.5208 14.9648 54.4232 15.0104 54.293 15.0625C54.1758 15.1016 54.0456 15.1471 53.9023 15.1992C53.7591 15.2383 53.6094 15.2773 53.4531 15.3164C53.3099 15.3555 53.1862 15.388 53.082 15.4141C53.0169 15.4271 52.9583 15.4596 52.9062 15.5117C52.8672 15.5508 52.8281 15.5768 52.7891 15.5898H52.7305C52.6654 15.5898 52.6133 15.5768 52.5742 15.5508C52.5221 15.5378 52.457 15.5312 52.3789 15.5312H52.3008C52.1706 15.5443 52.0404 15.5768 51.9102 15.6289C51.793 15.681 51.6823 15.707 51.5781 15.707C51.3958 15.707 51.1745 15.668 50.9141 15.5898C50.6536 15.5117 50.4323 15.4336 50.25 15.3555C50.1068 15.2773 49.9831 15.1797 49.8789 15.0625C49.7747 14.9323 49.638 14.8086 49.4688 14.6914C49.3125 14.5742 49.1628 14.4766 49.0195 14.3984C48.8893 14.3073 48.7786 14.2161 48.6875 14.125C48.5964 14.0208 48.5508 13.8971 48.5508 13.7539L48.5312 13.7344C48.5312 13.5911 48.5833 13.4089 48.6875 13.1875C48.8177 13.1484 48.9349 13.1289 49.0391 13.1289C49.1562 13.1289 49.2604 13.1484 49.3516 13.1875C49.5208 13.2917 49.6771 13.4284 49.8203 13.5977C49.9635 13.7539 50.1068 13.9167 50.25 14.0859C50.4062 14.2552 50.5885 14.3724 50.7969 14.4375C51.1875 14.5677 51.5651 14.6328 51.9297 14.6328C52.1641 14.6328 52.3919 14.6003 52.6133 14.5352C53.1732 14.4049 53.6549 14.1576 54.0586 13.793C54.4753 13.4154 54.8008 12.9531 55.0352 12.4062C55.2826 11.8594 55.4128 11.2799 55.4258 10.668V10.5312C55.4258 10.1536 55.3802 9.80859 55.2891 9.49609C55.1849 9.15755 55.0482 8.84505 54.8789 8.55859C54.7096 8.27214 54.5143 8.01172 54.293 7.77734C54.0716 7.52995 53.8503 7.28906 53.6289 7.05469C53.0169 6.72917 52.4115 6.56641 51.8125 6.56641C51.7344 6.56641 51.6562 6.57292 51.5781 6.58594C50.901 6.63802 50.2435 6.8138 49.6055 7.11328C49.1758 7.30859 48.7526 7.51693 48.3359 7.73828C47.9193 7.94661 47.5807 8.22005 47.3203 8.55859C47.4635 9.2487 47.5938 9.96484 47.7109 10.707C47.8411 11.4362 47.9388 12.1784 48.0039 12.9336C48.043 13.5065 48.0625 14.0859 48.0625 14.6719V15.2578C48.0365 16.0521 47.9453 16.8464 47.7891 17.6406C47.737 17.9141 47.6914 18.194 47.6523 18.4805C47.6133 18.7669 47.5677 19.0404 47.5156 19.3008C47.4766 19.5742 47.418 19.8281 47.3398 20.0625C47.2747 20.2969 47.1836 20.5052 47.0664 20.6875C46.9102 20.9219 46.6888 21.1172 46.4023 21.2734C46.1159 21.4297 45.8229 21.5208 45.5234 21.5469H45.3867C45.1393 21.5469 44.9115 21.4883 44.7031 21.3711C44.4427 21.2409 44.2734 20.9935 44.1953 20.6289C43.9609 19.6003 43.8372 18.5326 43.8242 17.4258V17.2109C43.8242 16.1823 43.9089 15.1732 44.0781 14.1836C44.2474 13.1159 44.5078 12.1003 44.8594 11.1367C45.2109 10.1732 45.6276 9.3138 46.1094 8.55859C46.1094 8.28516 46.0312 8.00521 45.875 7.71875C45.7318 7.43229 45.5951 7.15885 45.4648 6.89844C45.3346 6.63802 45.263 6.38411 45.25 6.13672C45.237 6.1237 45.2305 6.11068 45.2305 6.09766C45.2305 5.8763 45.3411 5.67448 45.5625 5.49219C45.6536 5.55729 45.7578 5.59635 45.875 5.60938C46.0052 5.6224 46.1029 5.66146 46.168 5.72656C46.2331 6.0651 46.3307 6.37109 46.4609 6.64453C46.6042 6.90495 46.7474 7.15885 46.8906 7.40625C47.0859 7.34115 47.2682 7.25651 47.4375 7.15234C47.6068 7.03516 47.776 6.91797 47.9453 6.80078C48.1276 6.68359 48.3034 6.57292 48.4727 6.46875C48.6549 6.36458 48.8503 6.27995 49.0586 6.21484C49.1237 6.1888 49.1953 6.17578 49.2734 6.17578H49.332C49.3451 6.1888 49.3646 6.19531 49.3906 6.19531C49.4557 6.19531 49.5273 6.18229 49.6055 6.15625C49.7747 6.09115 49.944 6.01302 50.1133 5.92188C50.2956 5.83073 50.4844 5.7526 50.6797 5.6875C50.888 5.60938 51.1159 5.54427 51.3633 5.49219C51.4805 5.47917 51.6172 5.47266 51.7734 5.47266C51.9036 5.47266 52.0404 5.47917 52.1836 5.49219C52.6133 5.60938 52.9844 5.72656 53.2969 5.84375C53.6094 5.94792 53.8893 6.07812 54.1367 6.23438C54.3971 6.39062 54.638 6.57943 54.8594 6.80078C55.0807 7.00911 55.3086 7.27604 55.543 7.60156C55.8294 8.00521 56.0508 8.46094 56.207 8.96875C56.3763 9.46354 56.4674 9.97786 56.4805 10.5117V10.5898C56.4805 11.1107 56.4154 11.6315 56.2852 12.1523C56.1419 12.6992 55.9141 13.2266 55.6016 13.7344ZM46.832 17.3281C46.8971 16.8203 46.9492 16.2669 46.9883 15.668C47.0013 15.2513 47.0078 14.8346 47.0078 14.418V13.9102C46.9948 13.3242 46.9688 12.7708 46.9297 12.25C46.8906 11.7292 46.8385 11.2799 46.7734 10.9023C46.7344 10.694 46.6693 10.4857 46.5781 10.2773C46.487 10.069 46.4284 9.95833 46.4023 9.94531C46.3763 9.95833 46.3568 9.98438 46.3438 10.0234C46.3307 10.0625 46.3112 10.0951 46.2852 10.1211C46.0638 10.6419 45.849 11.2344 45.6406 11.8984C45.4323 12.5625 45.25 13.2591 45.0938 13.9883C44.9375 14.7174 44.8268 15.4596 44.7617 16.2148C44.7096 16.6576 44.6836 17.0938 44.6836 17.5234C44.6836 17.8229 44.6966 18.1224 44.7227 18.4219C44.7487 18.7865 44.8073 19.1641 44.8984 19.5547C45.0026 19.9453 45.2044 20.2643 45.5039 20.5117C45.7383 20.4727 45.9271 20.3424 46.0703 20.1211C46.2266 19.8997 46.3503 19.6328 46.4414 19.3203C46.5456 19.0208 46.6237 18.6888 46.6758 18.3242C46.7409 17.9727 46.793 17.6406 46.832 17.3281ZM69.3516 14.8867C69.5599 15.1471 69.6901 15.4857 69.7422 15.9023C69.7552 16.0456 69.7617 16.1758 69.7617 16.293C69.7617 16.5664 69.7292 16.8138 69.6641 17.0352C69.5599 17.3737 69.3971 17.6081 69.1758 17.7383C69.0977 17.7904 69.0195 17.8164 68.9414 17.8164C68.7591 17.8164 68.5443 17.7057 68.2969 17.4844V17.3281C68.2969 17.237 68.3034 17.1589 68.3164 17.0938C68.3424 17.0026 68.375 16.9115 68.4141 16.8203C68.4531 16.7292 68.4857 16.638 68.5117 16.5469C68.5508 16.4688 68.5703 16.3711 68.5703 16.2539C68.5573 15.9674 68.5052 15.7396 68.4141 15.5703C68.3359 15.401 68.2188 15.2708 68.0625 15.1797C67.9062 15.0885 67.7109 15.0234 67.4766 14.9844C67.2422 14.9453 66.9753 14.9128 66.6758 14.8867C66.6497 15.6419 66.6107 16.4167 66.5586 17.2109C66.5065 18.0052 66.4089 18.7734 66.2656 19.5156C66.1354 20.2708 65.9466 20.9805 65.6992 21.6445C65.4518 22.3086 65.1198 22.888 64.7031 23.3828C64.2995 23.8906 63.7982 24.2878 63.1992 24.5742C62.6003 24.8607 61.8841 25.0039 61.0508 25.0039C60.4648 24.8867 59.9831 24.6654 59.6055 24.3398C59.2409 24.0273 58.9154 23.6628 58.6289 23.2461C58.4857 22.6081 58.3815 21.9831 58.3164 21.3711C58.3034 21.2148 58.2969 21.0586 58.2969 20.9023C58.2969 20.4206 58.3685 19.9128 58.5117 19.3789C58.5378 19.2617 58.5898 19.1055 58.668 18.9102C58.7461 18.7279 58.8307 18.5391 58.9219 18.3438C59.013 18.1484 59.1107 17.9596 59.2148 17.7773C59.319 17.6081 59.4102 17.4714 59.4883 17.3672C59.5794 17.25 59.6901 17.1589 59.8203 17.0938C59.9635 17.0286 60.0938 16.944 60.2109 16.8398C60.3802 16.6706 60.5234 16.4818 60.6406 16.2734C60.7708 16.0781 60.9531 15.8958 61.1875 15.7266C61.3307 15.6224 61.5065 15.5247 61.7148 15.4336C61.9232 15.3424 62.1185 15.2448 62.3008 15.1406C62.7956 14.8802 63.2708 14.6719 63.7266 14.5156C64.1953 14.3464 64.7422 14.1836 65.3672 14.0273C65.3672 13.6758 65.3607 13.3112 65.3477 12.9336C65.3477 12.543 65.3411 12.1589 65.3281 11.7812C65.3151 11.3906 65.2956 11.013 65.2695 10.6484C65.2435 10.2708 65.2109 9.91927 65.1719 9.59375C64.9896 9.69792 64.8464 9.82812 64.7422 9.98438C64.638 10.1406 64.5404 10.3099 64.4492 10.4922C64.3711 10.6745 64.293 10.8568 64.2148 11.0391C64.1367 11.2214 64.0391 11.3906 63.9219 11.5469C63.7917 11.7161 63.6159 11.8659 63.3945 11.9961C63.1862 12.1133 62.9714 12.25 62.75 12.4062C62.5286 12.5625 62.3073 12.7253 62.0859 12.8945C61.8646 13.0508 61.6237 13.1875 61.3633 13.3047C61.1029 13.4089 60.8164 13.474 60.5039 13.5C60.4388 13.513 60.3672 13.5195 60.2891 13.5195C60.0286 13.5195 59.7422 13.474 59.4297 13.3828C59.0391 13.1094 58.7461 12.7773 58.5508 12.3867C58.3555 11.9831 58.2383 11.5469 58.1992 11.0781C58.1732 10.9089 58.1602 10.7266 58.1602 10.5312C58.1602 10.2448 58.1862 9.94531 58.2383 9.63281C58.3034 9.13802 58.3945 8.64323 58.5117 8.14844C58.6419 7.65365 58.7852 7.17839 58.9414 6.72266C59.0977 6.25391 59.2344 5.83724 59.3516 5.47266C59.4948 5.38151 59.651 5.33594 59.8203 5.33594C59.8854 5.33594 59.9505 5.34245 60.0156 5.35547C60.0807 5.44661 60.1458 5.53125 60.2109 5.60938C60.276 5.6875 60.3411 5.77865 60.4062 5.88281C60.276 6.3776 60.1068 6.91146 59.8984 7.48438C59.7031 8.05729 59.5469 8.63672 59.4297 9.22266C59.3516 9.63932 59.3125 10.0495 59.3125 10.4531C59.3125 10.6094 59.319 10.7656 59.332 10.9219C59.3711 11.4688 59.5729 11.9635 59.9375 12.4062C60.0807 12.4323 60.2109 12.4453 60.3281 12.4453C60.4062 12.4453 60.4844 12.4388 60.5625 12.4258C60.7448 12.3997 60.9076 12.3607 61.0508 12.3086C61.194 12.2435 61.3242 12.1719 61.4414 12.0938C61.5716 12.0026 61.7018 11.9115 61.832 11.8203C62.0404 11.6771 62.2487 11.5599 62.457 11.4688C62.6784 11.3646 62.8607 11.2214 63.0039 11.0391C63.1602 10.8568 63.2969 10.6549 63.4141 10.4336C63.5312 10.1992 63.6419 9.97135 63.7461 9.75C63.8633 9.52865 63.9805 9.32031 64.0977 9.125C64.2279 8.91667 64.3906 8.7474 64.5859 8.61719C64.7031 8.14844 64.8333 7.67969 64.9766 7.21094C65.1068 6.79427 65.1719 6.35156 65.1719 5.88281V5.74609C65.3151 5.68099 65.4583 5.61589 65.6016 5.55078C65.6797 5.51172 65.7578 5.49219 65.8359 5.49219C65.9141 5.49219 65.9922 5.51172 66.0703 5.55078C66.1745 5.69401 66.2461 5.86328 66.2852 6.05859C66.3372 6.24089 66.3698 6.44271 66.3828 6.66406V6.82031C66.3828 6.98958 66.3763 7.15885 66.3633 7.32812C66.3372 7.54948 66.3112 7.75781 66.2852 7.95312C66.3242 8.39583 66.3503 8.83854 66.3633 9.28125C66.3763 9.72396 66.3893 10.1797 66.4023 10.6484C66.4154 11.1172 66.4284 11.599 66.4414 12.0938C66.4544 12.5885 66.487 13.1029 66.5391 13.6367C66.7083 13.6758 66.8516 13.7148 66.9688 13.7539C67.099 13.7799 67.2227 13.8125 67.3398 13.8516C67.457 13.8776 67.5807 13.9036 67.7109 13.9297C67.8411 13.9557 67.9974 13.9753 68.1797 13.9883C68.2708 14.0664 68.362 14.1315 68.4531 14.1836C68.5443 14.2357 68.6354 14.2878 68.7266 14.3398C68.8307 14.3919 68.9284 14.4635 69.0195 14.5547C69.1237 14.6328 69.2344 14.7435 69.3516 14.8867ZM65.4258 15.8633C65.4258 15.8242 65.4323 15.7656 65.4453 15.6875C65.4583 15.6094 65.4648 15.5312 65.4648 15.4531C65.4648 15.375 65.4453 15.3099 65.4062 15.2578C65.3802 15.1927 65.3216 15.1536 65.2305 15.1406C65.0742 15.2057 64.918 15.2643 64.7617 15.3164C64.6185 15.3685 64.4688 15.4141 64.3125 15.4531C64.1562 15.4792 63.9935 15.5117 63.8242 15.5508C63.668 15.5768 63.5247 15.6159 63.3945 15.668C63.2904 15.7201 63.1667 15.7982 63.0234 15.9023C62.8932 16.0065 62.7565 16.1042 62.6133 16.1953C62.418 16.3125 62.2096 16.4427 61.9883 16.5859C61.7669 16.7292 61.5521 16.8789 61.3438 17.0352C61.1484 17.1914 60.9596 17.3542 60.7773 17.5234C60.5951 17.6927 60.4453 17.8555 60.3281 18.0117C60.1458 18.2721 59.9831 18.5911 59.8398 18.9688C59.6966 19.3464 59.5859 19.7435 59.5078 20.1602C59.4427 20.5247 59.4102 20.8893 59.4102 21.2539V21.4297C59.4232 21.8594 59.4948 22.25 59.625 22.6016C59.7552 22.9531 59.9505 23.2461 60.2109 23.4805C60.4714 23.7148 60.8164 23.8516 61.2461 23.8906C61.3633 23.9036 61.474 23.9102 61.5781 23.9102C61.9948 23.9102 62.3594 23.8255 62.6719 23.6562C63.0495 23.4609 63.375 23.2005 63.6484 22.875C63.9219 22.5495 64.1497 22.1849 64.332 21.7812C64.5273 21.3906 64.7161 21.026 64.8984 20.6875C65.0417 19.9453 65.1719 19.1706 65.2891 18.3633C65.3802 17.7122 65.4258 17.0352 65.4258 16.332V15.8633Z" fill="#E80AB7"/>
<path d="M82.75 5.14062C82.9193 5.51823 83.0039 5.86979 83.0039 6.19531C83.0039 6.29948 82.9974 6.40365 82.9844 6.50781C82.9062 6.92448 82.737 7.30208 82.4766 7.64062C82.2161 7.96615 81.8841 8.2526 81.4805 8.5C81.0768 8.73438 80.6536 8.92318 80.2109 9.06641C79.9245 9.04036 79.6836 8.98828 79.4883 8.91016C79.293 8.81901 79.0521 8.76042 78.7656 8.73438C78.7005 8.63021 78.6224 8.54557 78.5312 8.48047C78.4401 8.41536 78.3424 8.35677 78.2383 8.30469C78.1471 8.2526 78.0495 8.20052 77.9453 8.14844C77.8542 8.08333 77.7826 7.9987 77.7305 7.89453C77.7044 7.69922 77.6784 7.48438 77.6523 7.25C77.6263 7.10677 77.6133 6.96354 77.6133 6.82031C77.6133 6.74219 77.6198 6.66406 77.6328 6.58594C77.6458 6.39062 77.7174 6.23438 77.8477 6.11719C77.9518 6.02604 78.1016 5.98047 78.2969 5.98047C78.362 5.98047 78.4336 5.98698 78.5117 6C78.6549 6.18229 78.7396 6.36458 78.7656 6.54688C78.7786 6.63802 78.7852 6.74219 78.7852 6.85938C78.7852 6.98958 78.7786 7.13281 78.7656 7.28906C78.9479 7.43229 79.1497 7.58203 79.3711 7.73828C79.5794 7.88151 79.7943 7.95312 80.0156 7.95312H80.0742C80.1393 7.95312 80.263 7.91406 80.4453 7.83594C80.6406 7.74479 80.8424 7.64062 81.0508 7.52344C81.2721 7.39323 81.4674 7.25651 81.6367 7.11328C81.819 6.95703 81.9297 6.82031 81.9688 6.70312C81.9948 6.625 82.0078 6.54036 82.0078 6.44922C82.0078 6.33203 81.9818 6.21484 81.9297 6.09766C81.8646 5.95443 81.832 5.79818 81.832 5.62891V5.47266C81.6888 5.40755 81.5521 5.3099 81.4219 5.17969C81.3047 5.04948 81.181 4.91276 81.0508 4.76953C80.9206 4.61328 80.7904 4.47005 80.6602 4.33984C80.5299 4.20964 80.3802 4.10547 80.2109 4.02734C80.1068 3.98828 79.9766 3.96875 79.8203 3.96875C79.651 3.96875 79.4948 3.94922 79.3516 3.91016C79.1823 3.84505 79.0195 3.76693 78.8633 3.67578C78.7201 3.58464 78.5768 3.53255 78.4336 3.51953C78.3034 3.49349 78.1732 3.48047 78.043 3.48047C77.9128 3.48047 77.7891 3.49349 77.6719 3.51953C77.4115 3.55859 77.1576 3.61068 76.9102 3.67578C76.6628 3.72786 76.4089 3.77995 76.1484 3.83203C75.901 3.88411 75.6406 3.91016 75.3672 3.91016C74.4818 4.28776 73.6549 4.75 72.8867 5.29688C72.1185 5.84375 71.487 6.55339 70.9922 7.42578C70.7969 7.77734 70.6406 8.17448 70.5234 8.61719C70.4062 9.0599 70.3281 9.50911 70.2891 9.96484C70.263 10.2253 70.25 10.4727 70.25 10.707C70.25 10.9154 70.2565 11.1172 70.2695 11.3125C70.3086 11.7552 70.3997 12.1393 70.543 12.4648C70.7904 13.0638 71.1615 13.6432 71.6562 14.2031C72.151 14.75 72.7565 15.1471 73.4727 15.3945C73.7982 15.5117 74.2018 15.6094 74.6836 15.6875C75.1654 15.7526 75.6797 15.7982 76.2266 15.8242C76.487 15.8372 76.7539 15.8438 77.0273 15.8438C77.3008 15.8438 77.5677 15.8372 77.8281 15.8242C78.362 15.7982 78.8503 15.7396 79.293 15.6484C79.4492 15.6094 79.625 15.5703 79.8203 15.5312C80.0156 15.4922 80.2109 15.4466 80.4062 15.3945C80.6016 15.3294 80.7839 15.2708 80.9531 15.2188C81.1224 15.1536 81.2656 15.082 81.3828 15.0039C81.4609 14.9518 81.5326 14.8867 81.5977 14.8086C81.6628 14.7174 81.7344 14.6328 81.8125 14.5547C81.8906 14.4766 81.9818 14.4115 82.0859 14.3594C82.138 14.3333 82.2031 14.3203 82.2812 14.3203C82.3203 14.3203 82.3659 14.3268 82.418 14.3398C82.6263 14.4049 82.75 14.5482 82.7891 14.7695C82.8021 14.8346 82.8086 14.8932 82.8086 14.9453C82.8086 15.1146 82.7695 15.2839 82.6914 15.4531C82.1185 15.7917 81.4609 16.0781 80.7188 16.3125C79.9766 16.5469 79.1888 16.7096 78.3555 16.8008C77.7956 16.8659 77.2357 16.8984 76.6758 16.8984C76.3763 16.8984 76.0703 16.8919 75.7578 16.8789C74.8724 16.8268 74.0065 16.6771 73.1602 16.4297C72.431 16.1562 71.7799 15.7721 71.207 15.2773C70.6471 14.7695 70.1914 14.1706 69.8398 13.4805C69.5013 12.7904 69.293 12.0091 69.2148 11.1367C69.1888 10.9154 69.1758 10.681 69.1758 10.4336C69.1758 9.78255 69.2604 9.08594 69.4297 8.34375C69.8464 7.41927 70.3411 6.55339 70.9141 5.74609C71.487 4.9388 72.2357 4.28125 73.1602 3.77344C73.8242 3.40885 74.5013 3.14193 75.1914 2.97266C75.8945 2.79036 76.6953 2.62109 77.5938 2.46484C77.75 2.4388 77.9062 2.42578 78.0625 2.42578C78.2057 2.42578 78.349 2.4388 78.4922 2.46484C78.7786 2.51693 79.0586 2.59505 79.332 2.69922C79.6185 2.79036 79.8984 2.89453 80.1719 3.01172C80.4583 3.11589 80.7513 3.19401 81.0508 3.24609C81.181 3.44141 81.3242 3.61068 81.4805 3.75391C81.6497 3.89714 81.8125 4.04036 81.9688 4.18359C82.125 4.3138 82.2682 4.45703 82.3984 4.61328C82.5417 4.76953 82.6589 4.94531 82.75 5.14062ZM93.8633 11.0977V11.3125C93.8633 11.7552 93.8307 12.1979 93.7656 12.6406C93.6875 13.1615 93.5898 13.6758 93.4727 14.1836C93.3555 14.6784 93.2253 15.1667 93.082 15.6484C92.9388 16.1172 92.8086 16.5599 92.6914 16.9766C92.5612 17.0026 92.444 17.0352 92.3398 17.0742C92.2747 17.1003 92.1966 17.1133 92.1055 17.1133C92.0534 17.1133 91.9883 17.1068 91.9102 17.0938C91.832 17.0286 91.7604 16.9505 91.6953 16.8594C91.6432 16.7812 91.5846 16.7096 91.5195 16.6445C91.7018 16.1237 91.8841 15.5443 92.0664 14.9062C92.2617 14.2682 92.4115 13.6172 92.5156 12.9531C92.5938 12.4453 92.6328 11.944 92.6328 11.4492V10.9805C92.5938 10.3424 92.4375 9.75 92.1641 9.20312C91.9427 8.96875 91.6888 8.76042 91.4023 8.57812C91.1289 8.39583 90.8164 8.2526 90.4648 8.14844C89.9831 8.22656 89.5404 8.32422 89.1367 8.44141C88.7331 8.55859 88.375 8.76693 88.0625 9.06641C87.6198 9.49609 87.2878 10.056 87.0664 10.7461C86.8451 11.4362 86.6823 12.1849 86.5781 12.9922C86.474 13.7995 86.4023 14.6263 86.3633 15.4727C86.3242 16.306 86.2591 17.0872 86.168 17.8164C85.9336 17.9727 85.7448 18.0508 85.6016 18.0508C85.5625 18.0508 85.5299 18.0443 85.5039 18.0312C85.3477 17.9922 85.2305 17.8815 85.1523 17.6992C85.0872 17.5299 85.0547 17.3086 85.0547 17.0352C85.0547 16.7747 85.0677 16.5013 85.0938 16.2148C85.1198 15.9284 85.1458 15.6615 85.1719 15.4141C85.2109 15.1536 85.237 14.9518 85.25 14.8086C85.3021 14.0273 85.3346 13.2201 85.3477 12.3867V11.5664C85.3477 11.0326 85.3411 10.4987 85.3281 9.96484C85.3021 9.17057 85.263 8.41536 85.2109 7.69922C85.1719 6.97005 85.1263 6.3125 85.0742 5.72656C84.944 5.50521 84.8789 5.19922 84.8789 4.80859C84.8789 4.41797 84.8594 4.00781 84.8203 3.57812C84.7943 3.35677 84.7487 3.1224 84.6836 2.875C84.6185 2.6276 84.5859 2.41276 84.5859 2.23047C84.5859 2.04818 84.6576 1.91146 84.8008 1.82031C84.8659 1.78125 84.9635 1.76172 85.0938 1.76172C85.237 1.76172 85.4193 1.78776 85.6406 1.83984C85.7839 2.39974 85.901 2.9987 85.9922 3.63672C86.0833 4.27474 86.1549 4.93229 86.207 5.60938C86.2591 6.27344 86.2982 6.94401 86.3242 7.62109C86.3633 8.28516 86.4023 8.9362 86.4414 9.57422C86.6237 9.06641 86.9297 8.61719 87.3594 8.22656C87.7891 7.83594 88.2839 7.54297 88.8438 7.34766C89.2995 7.19141 89.7747 7.11328 90.2695 7.11328H90.6406C91.2656 7.16536 91.8646 7.38021 92.4375 7.75781C92.7891 8.22656 93.1081 8.72786 93.3945 9.26172C93.694 9.78255 93.8503 10.3945 93.8633 11.0977ZM96.6758 3.34375C96.9362 3.1875 97.151 3.10938 97.3203 3.10938H97.418C97.5872 3.14844 97.7044 3.23958 97.7695 3.38281C97.7956 3.47396 97.8086 3.57812 97.8086 3.69531V3.87109C97.7695 4.06641 97.6979 4.22266 97.5938 4.33984C97.4896 4.44401 97.3659 4.49609 97.2227 4.49609C97.1966 4.49609 97.1771 4.48958 97.1641 4.47656C96.9818 4.46354 96.7799 4.32682 96.5586 4.06641C96.5456 4.01432 96.5391 3.96875 96.5391 3.92969C96.5391 3.82552 96.5651 3.74089 96.6172 3.67578C96.6562 3.61068 96.6758 3.52604 96.6758 3.42188V3.34375ZM98.2383 17.0547C98.1081 17.1068 97.9909 17.1328 97.8867 17.1328C97.8086 17.1328 97.7435 17.1133 97.6914 17.0742C97.5482 17.0091 97.431 16.8919 97.3398 16.7227C97.2487 16.5664 97.1771 16.3841 97.125 16.1758C97.0729 15.9805 97.0143 15.7982 96.9492 15.6289C96.7279 15.069 96.5391 14.431 96.3828 13.7148C96.2266 12.9987 96.1159 12.2565 96.0508 11.4883C95.9987 10.8503 95.9727 10.2057 95.9727 9.55469V9.16406C95.9857 8.39583 96.0508 7.67969 96.168 7.01562C96.3372 6.85938 96.5195 6.78125 96.7148 6.78125H96.793C97.0143 6.80729 97.1706 6.92448 97.2617 7.13281C97.3008 7.21094 97.3203 7.29557 97.3203 7.38672C97.3203 7.47786 97.3073 7.57552 97.2812 7.67969C97.2161 7.90104 97.1706 8.13542 97.1445 8.38281C97.1185 8.66927 97.1055 8.98828 97.1055 9.33984V9.69141C97.1185 10.1862 97.1315 10.5964 97.1445 10.9219C97.1445 11.1953 97.151 11.5013 97.1641 11.8398C97.1901 12.1654 97.2292 12.4974 97.2812 12.8359C97.3333 13.1745 97.3919 13.5065 97.457 13.832C97.5352 14.1576 97.6263 14.4505 97.7305 14.7109C97.8086 14.9323 97.9128 15.1471 98.043 15.3555C98.1732 15.5508 98.2773 15.7396 98.3555 15.9219C98.4466 16.1042 98.4922 16.2865 98.4922 16.4688C98.4922 16.6641 98.4076 16.8594 98.2383 17.0547ZM102.379 16.9961C102.34 17.1003 102.268 17.1914 102.164 17.2695C102.073 17.3477 101.969 17.3997 101.852 17.4258C101.786 17.4388 101.715 17.4453 101.637 17.4453C101.585 17.4453 101.533 17.4388 101.48 17.4258C101.35 17.4128 101.24 17.3607 101.148 17.2695C101.005 15.9674 100.855 14.6784 100.699 13.4023C100.543 12.1133 100.432 10.8372 100.367 9.57422C100.328 8.87109 100.309 8.17448 100.309 7.48438C100.309 6.92448 100.322 6.36458 100.348 5.80469C100.4 4.55469 100.556 3.30469 100.816 2.05469C100.947 2.01562 101.07 1.99609 101.188 1.99609C101.266 1.99609 101.344 2.0026 101.422 2.01562C101.591 2.08073 101.734 2.17839 101.852 2.30859C101.656 3.54557 101.533 4.78906 101.48 6.03906C101.441 6.66406 101.422 7.28906 101.422 7.91406C101.422 8.52604 101.441 9.14453 101.48 9.76953C101.533 11.0065 101.637 12.2305 101.793 13.4414C101.962 14.6523 102.158 15.8372 102.379 16.9961ZM117.691 17.1914C117.704 17.2695 117.711 17.3411 117.711 17.4062C117.711 17.6667 117.652 17.849 117.535 17.9531C117.392 18.0833 117.223 18.1484 117.027 18.1484C117.001 18.1484 116.975 18.1419 116.949 18.1289C116.715 18.1159 116.461 18.0443 116.188 17.9141C115.927 17.7969 115.712 17.6602 115.543 17.5039C115.322 17.3216 115.113 17.0872 114.918 16.8008C114.723 16.5273 114.54 16.2344 114.371 15.9219C114.202 15.5964 114.046 15.2708 113.902 14.9453C113.759 14.6198 113.629 14.3203 113.512 14.0469C113.342 14.3073 113.141 14.5938 112.906 14.9062C112.672 15.2057 112.411 15.5117 112.125 15.8242C111.852 16.1237 111.552 16.4102 111.227 16.6836C110.914 16.957 110.589 17.1914 110.25 17.3867C109.99 17.5299 109.651 17.6667 109.234 17.7969C108.818 17.9401 108.414 18.0182 108.023 18.0312H107.906C107.62 18.0312 107.359 17.9922 107.125 17.9141C106.852 17.8229 106.591 17.7057 106.344 17.5625C106.096 17.4193 105.855 17.2565 105.621 17.0742C105.4 16.8919 105.178 16.7096 104.957 16.5273C104.697 16.1628 104.469 15.7396 104.273 15.2578C104.091 14.763 103.961 14.2487 103.883 13.7148C103.818 13.3372 103.785 12.9531 103.785 12.5625C103.785 12.4193 103.792 12.2695 103.805 12.1133C103.831 11.5664 103.935 11.0391 104.117 10.5312C104.43 9.98438 104.807 9.5026 105.25 9.08594C105.693 8.65625 106.188 8.28516 106.734 7.97266C107.125 7.93359 107.535 7.89453 107.965 7.85547C108.329 7.82943 108.688 7.81641 109.039 7.81641H109.254C109.671 7.82943 110.074 7.875 110.465 7.95312C110.868 8.03125 111.233 8.16797 111.559 8.36328C111.728 8.46745 111.858 8.59115 111.949 8.73438C112.04 8.86458 112.19 8.9362 112.398 8.94922V6.97656C112.385 6.83333 112.379 6.69661 112.379 6.56641C112.379 5.96745 112.418 5.38151 112.496 4.80859C112.574 4.10547 112.75 3.46745 113.023 2.89453C113.297 2.32161 113.746 1.90495 114.371 1.64453H114.469C114.755 1.64453 114.99 1.69661 115.172 1.80078C115.367 1.93099 115.523 2.10026 115.641 2.30859C115.758 2.50391 115.849 2.72526 115.914 2.97266C115.992 3.22005 116.083 3.45443 116.188 3.67578C116.083 5.26432 115.882 6.78125 115.582 8.22656C115.296 9.67188 114.866 11.0065 114.293 12.2305C114.358 12.6862 114.456 13.1094 114.586 13.5C114.716 13.8906 114.866 14.2617 115.035 14.6133C115.204 14.9648 115.387 15.3034 115.582 15.6289C115.79 15.9544 115.992 16.2799 116.188 16.6055C116.292 16.6706 116.409 16.7227 116.539 16.7617C116.682 16.8008 116.826 16.8333 116.969 16.8594C117.112 16.8984 117.249 16.9375 117.379 16.9766C117.509 17.0286 117.613 17.1003 117.691 17.1914ZM114.684 7.71875C114.71 7.6276 114.723 7.53646 114.723 7.44531C114.723 7.36719 114.716 7.28906 114.703 7.21094C114.677 7.10677 114.664 7.0026 114.664 6.89844C114.664 6.82031 114.671 6.74219 114.684 6.66406C114.723 6.36458 114.781 6.05859 114.859 5.74609C114.951 5.42057 115.022 5.10156 115.074 4.78906C115.087 4.63281 115.094 4.47656 115.094 4.32031C115.094 4.16406 115.087 4.01432 115.074 3.87109C115.022 3.57161 114.892 3.28516 114.684 3.01172C114.645 2.9987 114.605 2.99219 114.566 2.99219C114.449 2.99219 114.332 3.04427 114.215 3.14844C114.072 3.29167 113.967 3.42188 113.902 3.53906C113.694 3.96875 113.564 4.46354 113.512 5.02344C113.473 5.40104 113.453 5.78516 113.453 6.17578C113.453 6.37109 113.46 6.56641 113.473 6.76172C113.499 7.36068 113.544 7.95964 113.609 8.55859C113.688 9.14453 113.746 9.69141 113.785 10.1992C114.007 9.96484 114.143 9.67188 114.195 9.32031C114.247 8.95573 114.326 8.59766 114.43 8.24609C114.456 8.14193 114.495 8.05729 114.547 7.99219C114.612 7.91406 114.658 7.82292 114.684 7.71875ZM113.062 12.2891V12.1719C113.062 12.0026 113.043 11.8268 113.004 11.6445C112.952 11.4362 112.88 11.2344 112.789 11.0391C112.711 10.8307 112.613 10.6484 112.496 10.4922C112.379 10.3229 112.262 10.1797 112.145 10.0625C112.027 9.95833 111.858 9.84115 111.637 9.71094C111.428 9.56771 111.194 9.43099 110.934 9.30078C110.686 9.17057 110.439 9.06641 110.191 8.98828C109.944 8.89714 109.723 8.84505 109.527 8.83203C109.345 8.81901 109.169 8.8125 109 8.8125C108.206 8.8125 107.522 8.96224 106.949 9.26172C106.246 9.6263 105.719 10.1276 105.367 10.7656C105.042 11.3646 104.879 12.0352 104.879 12.7773C104.879 12.8555 104.885 12.9271 104.898 12.9922C104.924 13.8255 105.165 14.6784 105.621 15.5508C105.816 15.8112 106.051 16.0391 106.324 16.2344C106.611 16.4427 106.923 16.5924 107.262 16.6836C107.548 16.7747 107.854 16.8203 108.18 16.8203H108.316C108.681 16.8073 109.046 16.7096 109.41 16.5273C109.775 16.3581 110.159 16.1042 110.562 15.7656C110.979 15.4271 111.37 15.0625 111.734 14.6719C112.099 14.2682 112.405 13.8581 112.652 13.4414C112.9 13.0247 113.036 12.6406 113.062 12.2891Z" fill="#2220A9"/>
</g>
<defs>
<filter id="filter0_d_10_19" x="0.1875" y="0.941406" width="124.523" height="33.0625" filterUnits="userSpaceOnUse" color-interpolation-filters="sRGB">
<feFlood flood-opacity="0" result="BackgroundImageFix"/>
<feColorMatrix in="SourceAlpha" type="matrix" values="0 0 0 0 0 0 0 0 0 0 0 0 0 0 0 0 0 0 127 0" result="hardAlpha"/>
<feOffset dx="3" dy="5"/>
<feGaussianBlur stdDeviation="2"/>
<feComposite in2="hardAlpha" operator="out"/>
<feColorMatrix type="matrix" values="0 0 0 0 0 0 0 0 0 0 0 0 0 0 0 0 0 0 0.25 0"/>
<feBlend mode="normal" in2="BackgroundImageFix" result="effect1_dropShadow_10_19"/>
<feBlend mode="normal" in="SourceGraphic" in2="effect1_dropShadow_10_19" result="shape"/>
</filter>
</defs>
</svg>
