<svg width="27" height="27" viewBox="0 0 27 27" fill="none" xmlns="http://www.w3.org/2000/svg">
<path d="M19.6913 0H7.30864C3.27859 0 0 3.27859 0 7.30864V19.6915C0 23.7214 3.27859 26.9999 7.30864 26.9999H19.6915C23.7214 26.9999 26.9999 23.7214 26.9999 19.6915V7.30864C26.9999 3.27859 23.7214 0 19.6913 0V0ZM13.5 20.8826C9.42913 20.8826 6.11738 17.5708 6.11738 13.5C6.11738 9.42913 9.42913 6.11738 13.5 6.11738C17.5708 6.11738 20.8826 9.42913 20.8826 13.5C20.8826 17.5708 17.5708 20.8826 13.5 20.8826ZM21.0591 7.85844C19.8561 7.85844 18.8776 6.87997 18.8776 5.67697C18.8776 4.47397 19.8561 3.49529 21.0591 3.49529C22.2621 3.49529 23.2408 4.47397 23.2408 5.67697C23.2408 6.87997 22.2621 7.85844 21.0591 7.85844Z" fill="#284461"/>
<path d="M13.5002 7.7002C10.3023 7.7002 7.70044 10.3019 7.70044 13.4999C7.70044 16.6978 10.3023 19.2997 13.5002 19.2997C16.6982 19.2997 19.2999 16.6978 19.2999 13.4999C19.2999 10.3019 16.6982 7.7002 13.5002 7.7002Z" fill="#284461"/>
<path d="M21.0591 5.07812C20.7291 5.07812 20.4605 5.34674 20.4605 5.67674C20.4605 6.00674 20.7291 6.27536 21.0591 6.27536C21.3893 6.27536 21.6579 6.00695 21.6579 5.67674C21.6579 5.34653 21.3893 5.07812 21.0591 5.07812Z" fill="#284461"/>
</svg>
