<svg width="28" height="27" viewBox="0 0 28 27" fill="none" xmlns="http://www.w3.org/2000/svg">
<g clip-path="url(#clip0_42_152)">
<path d="M0.619905 13.0179L6.84125 15.3399L9.24928 23.0841C9.40336 23.5801 10.0099 23.7634 10.4124 23.4343L13.8803 20.6072C14.2438 20.311 14.7616 20.2962 15.1415 20.572L21.3963 25.1131C21.827 25.4262 22.4371 25.1902 22.5451 24.6698L27.1271 2.6296C27.245 2.06116 26.6864 1.58695 26.1452 1.79629L0.612615 11.646C-0.017475 11.889 -0.011985 12.7811 0.619905 13.0179ZM8.86121 14.1038L21.02 6.61516C21.2385 6.48097 21.4634 6.77644 21.2757 6.9505L11.2412 16.2781C10.8885 16.6064 10.6609 17.0458 10.5965 17.5227L10.2547 20.0559C10.2094 20.3941 9.73429 20.4276 9.64096 20.1003L8.32633 15.4811C8.17577 14.9542 8.39519 14.3914 8.86121 14.1038Z" fill="#284461"/>
</g>
<defs>
<clipPath id="clip0_42_152">
<rect width="27" height="27" fill="white" transform="translate(0.142853)"/>
</clipPath>
</defs>
</svg>
